<svg width="140" height="26" viewBox="0 0 140 26" fill="none" xmlns="http://www.w3.org/2000/svg">
<g clip-path="url(#clip0_18339_790)">
<path d="M33.5266 18.4542C32.563 18.4542 31.6745 18.2809 30.8842 17.9851L38.1206 11.3414V7.16797H25.2525V11.3414H32.0199L25.1289 17.6397V22.5294H25.9689L27.649 20.9488C29.1302 22.0361 31.0575 22.6288 33.1569 22.6288C35.2564 22.6288 37.2564 22.0858 38.6152 21.0979V16.5293C37.38 17.7391 35.4782 18.4554 33.5278 18.4554L33.5266 18.4542Z" fill="#163300"/>
<path d="M75.0406 13.8117L78.054 22.2834H82.5001L85.4638 12.4287L88.4032 22.2834H92.8239L98.2083 7.16797H93.2688L90.5027 16.6772L87.5887 7.16797H83.168L80.2783 16.7015L79.0928 12.8735C78.4758 10.5268 78.0552 8.77406 78.3522 7.16797H73.906C73.5606 8.94618 74.0794 11.0214 75.0418 13.8117H75.0406Z" fill="#163300"/>
<path d="M105.147 6.82422C100.503 6.82422 96.9961 10.2328 96.9961 14.7274C96.9961 19.222 100.503 22.6306 105.147 22.6306C109.79 22.6306 113.297 19.222 113.297 14.7274C113.297 10.2328 109.79 6.82422 105.147 6.82422ZM105.147 18.4571C103.023 18.4571 101.442 16.8765 101.442 14.7274C101.442 12.5783 103.023 10.9976 105.147 10.9976C107.27 10.9976 108.851 12.6025 108.851 14.7274C108.851 16.8523 107.27 18.4571 105.147 18.4571Z" fill="#163300"/>
<path d="M123.006 6.94531C121.178 6.94531 119.598 7.78533 118.462 9.29202V7.16835H114.115V22.2838H118.462V15.2448C118.462 12.8981 120.067 11.3914 123.006 11.3914H123.599V6.94531H123.006Z" fill="#163300"/>
<path d="M68.4126 0.945312V8.67635C67.2514 7.51512 65.6707 6.8242 63.8428 6.8242C59.6937 6.8242 56.5566 10.2327 56.5566 14.7274C56.5566 19.222 59.6937 22.6305 63.8428 22.6305C65.6707 22.6305 67.2259 21.9384 68.4126 20.7784V22.2851H72.7351V0.945312H68.4126ZM64.7083 18.4559C62.6089 18.4559 61.0282 16.8753 61.0282 14.7262C61.0282 12.577 62.6089 10.9964 64.7083 10.9964C66.8077 10.9964 68.4126 12.6013 68.4126 14.7262C68.4126 16.851 66.832 18.4559 64.7083 18.4559Z" fill="#163300"/>
<path d="M51.0188 7.16968V8.67637C49.8576 7.51514 48.3024 6.82422 46.4502 6.82422C42.3253 6.82422 39.1641 10.2328 39.1641 14.7274C39.1641 19.222 42.3253 22.6306 46.4502 22.6306C48.3024 22.6306 49.8333 21.9384 51.0188 20.7784V22.2851H55.3413V7.16968H51.0188ZM47.3145 18.4559C45.2151 18.4559 43.6587 16.8753 43.6587 14.7262C43.6587 12.577 45.2151 10.9964 47.3145 10.9964C49.4139 10.9964 51.0188 12.6013 51.0188 14.7262C51.0188 16.8511 49.4624 18.4559 47.3145 18.4559Z" fill="#163300"/>
<path d="M124.924 0.949219H129.249V12.9458L134.462 7.17114H139.942L133.663 13.8937L135.529 16.2646C136.566 17.6562 137.573 18.0998 139.113 18.0998H140.002V22.2769H138.61C135.529 22.2769 133.633 21.2684 131.915 18.6319L130.73 17.0331L129.249 18.6029V22.2756H124.924V0.949219Z" fill="#163300"/>
<path d="M18.764 4.17578V8.41464C11.4741 8.41464 5.42191 13.8123 4.3928 20.8209C4.28977 21.5106 4.23886 22.2197 4.23886 22.9397V25.0586H0V22.9397C0 22.2222 0.0387886 21.5167 0.121214 20.8209C0.681224 15.8354 3.20612 11.4389 6.89951 8.41464H0V4.17578H18.764Z" fill="#9FE870"/>
<path d="M18.7642 15.985V11.7461C13.3181 11.7461 8.77134 15.654 7.7786 20.8166C7.64526 21.5038 7.57617 22.2117 7.57617 22.9354V25.0542H18.7655V20.8153H12.1447C13.0441 18.0153 15.6721 15.9837 18.7655 15.9837L18.7642 15.985Z" fill="#9FE870"/>
</g>
<defs>
<clipPath id="clip0_18339_790">
<rect width="140" height="24.1119" fill="white" transform="translate(0 0.945312)"/>
</clipPath>
</defs>
</svg>
